<?xml version="1.0" encoding="UTF-8" standalone="no"?>
<!-- Created with Inkscape (http://www.inkscape.org/) -->

<svg
   version="1.1"
   id="svg1"
   width="328.15704"
   height="168.03961"
   viewBox="0 0 328.15704 168.03961"
   sodipodi:docname="KICA01.ai"
   xmlns:inkscape="http://www.inkscape.org/namespaces/inkscape"
   xmlns:sodipodi="http://sodipodi.sourceforge.net/DTD/sodipodi-0.dtd"
   xmlns="http://www.w3.org/2000/svg"
   xmlns:svg="http://www.w3.org/2000/svg">
  <defs
     id="defs1">
    <clipPath
       clipPathUnits="userSpaceOnUse"
       id="clipPath5">
      <path
         d="M 0,0 H 595.275 V 841.89 H 0 Z"
         transform="translate(-225.26811,-502.98341)"
         id="path5" />
    </clipPath>
    <clipPath
       clipPathUnits="userSpaceOnUse"
       id="clipPath7">
      <path
         d="M 0,0 H 595.275 V 841.89 H 0 Z"
         transform="translate(-268.3174,-509.39752)"
         id="path7" />
    </clipPath>
    <clipPath
       clipPathUnits="userSpaceOnUse"
       id="clipPath9">
      <path
         d="M 0,0 H 595.275 V 841.89 H 0 Z"
         transform="translate(-211.9639,-456.48971)"
         id="path9" />
    </clipPath>
    <clipPath
       clipPathUnits="userSpaceOnUse"
       id="clipPath11">
      <path
         d="M 0,0 H 595.275 V 841.89 H 0 Z"
         transform="translate(-414.85161,-435.37111)"
         id="path11" />
    </clipPath>
  </defs>
  <sodipodi:namedview
     id="namedview1"
     pagecolor="#ffffff"
     bordercolor="#000000"
     borderopacity="0.25"
     inkscape:showpageshadow="2"
     inkscape:pageopacity="0.0"
     inkscape:pagecheckerboard="0"
     inkscape:deskcolor="#d1d1d1">
    <inkscape:page
       x="0"
       y="0"
       width="328.15704"
       height="168.03961"
       id="page2"
       margin="0"
       bleed="0" />
  </sodipodi:namedview>
  <g
     id="g1"
     inkscape:groupmode="layer"
     inkscape:label="1"
     transform="translate(-226.9612,-397.72614)">
    <g
       id="group-MC0">
      <path
         id="path4"
         d="M 0,0 C 4.669,15.6 19.127,26.97 36.243,26.97 53.367,26.97 67.822,15.6 72.496,0 H 86.57 C 81.58,23.214 60.947,40.612 36.243,40.612 11.544,40.612 -9.081,23.214 -14.079,0 Z"
         style="fill:#f57c14;fill-opacity:1;fill-rule:nonzero;stroke:none"
         transform="matrix(1.3333333,0,0,-1.3333333,300.35747,451.87547)"
         clip-path="url(#clipPath5)" />
      <path
         id="path6"
         d="M 0,0 -7.833,-0.007 -14.66,0 c -2.957,0 -4.131,-1.623 -4.131,-4.35 v -65.863 c 0,-2.957 1.561,-4.438 4.597,-4.438 h 5.174 2.381 6.175 c 3.035,0 4.599,1.481 4.599,4.438 V -4.35 C 4.135,-1.623 2.958,0 0,0"
         style="fill:#f57c14;fill-opacity:1;fill-rule:nonzero;stroke:none"
         transform="matrix(1.3333333,0,0,-1.3333333,357.75653,443.32333)"
         clip-path="url(#clipPath7)"
         inkscape:export-filename="path6.svg"
         inkscape:export-xdpi="96"
         inkscape:export-ydpi="96" />
      <path
         id="path8"
         d="m 0,0 c 0,0 24.843,28.078 26.516,30.03 2.335,2.725 0.622,5.585 -2.491,5.585 H 11.081 c 0,0 -5.409,0.309 -9.294,-4.441 L -19.136,6.788 v 24.591 c 0,2.723 -1.136,4.35 -3.763,4.35 l -7.196,-0.011 -7.517,0.011 c -2.959,0 -4.131,-1.627 -4.131,-4.35 v -65.861 c 0,-2.962 1.563,-4.442 4.599,-4.442 h 5.854 2.385 5.169 c 3.037,0 4.6,1.48 4.6,4.442 V -7.748 L 2.07,-34.469 c 0,0 3.796,-4.371 9.389,-4.371 h 14.589 c 3.502,0 5.138,2.773 2.92,5.343 C 26.585,-30.736 0,0 0,0"
         style="fill:#ffffff;fill-opacity:1;fill-rule:nonzero;stroke:none"
         transform="matrix(1.3333333,0,0,-1.3333333,282.61853,513.86707)"
         clip-path="url(#clipPath9)" />
      <path
         id="path10"
         d="m 0,0 c -1.434,3.886 -16.881,43.145 -19.561,50.153 -2.585,6.75 -10.988,6.693 -10.988,6.693 h -5.603 -6.342 c 0,0 -8.399,0.057 -10.985,-6.693 -1.623,-4.236 -12.564,-32.36 -19.822,-51.002 l -20.453,-0.007 c -4.816,0 -8.246,0.537 -10.277,1.607 -2.037,1.071 -3.629,2.939 -4.782,5.599 -1.156,2.665 -1.73,8.511 -1.73,14.484 0,7.91 1.287,11.223 3.863,14.14 2.58,2.92 6.854,4.377 12.823,4.377 0,0 3.668,-0.054 7.406,-0.054 19.23,0 20.472,17.633 20.472,17.633 h -31.375 c -6.765,0 -12.224,-0.912 -16.384,-2.747 -4.164,-1.829 -7.607,-4.459 -10.319,-7.886 -2.716,-3.429 -4.689,-7.412 -5.914,-11.958 -1.22,-4.544 -1.829,-9.363 -1.829,-14.449 0,-7.969 0.904,-14.159 2.716,-18.546 1.818,-4.392 4.346,-8.072 7.573,-11.038 3.225,-2.97 6.695,-4.949 10.396,-5.932 5.06,-1.356 9.648,-2.031 13.761,-2.031 h 24.155 5.045 v 0.003 c 0.287,0.004 0.568,0.042 0.838,0.101 h 2.289 c 9.295,0 12.041,8.179 12.041,8.179 l 16.996,50.479 14.861,-42.167 h -24.502 c 0,0 1.764,-16.494 18.748,-16.494 9.549,0 15.83,0.005 15.83,0.005 C -2.959,-17.551 4.828,-13.08 0,0"
         style="fill:#ffffff;fill-opacity:1;fill-rule:nonzero;stroke:none"
         transform="matrix(1.3333333,0,0,-1.3333333,553.13547,542.0252)"
         clip-path="url(#clipPath11)" />
    </g>
  </g>
</svg>
